<?xml version="1.0" encoding="utf-8"?>
<!-- Generator: Adobe Illustrator 23.0.4, SVG Export Plug-In . SVG Version: 6.00 Build 0)  -->
<svg version="1.1"
	 id="svg4819" xmlns:cc="http://creativecommons.org/ns#" xmlns:dc="http://purl.org/dc/elements/1.1/" xmlns:inkscape="http://www.inkscape.org/namespaces/inkscape" xmlns:rdf="http://www.w3.org/1999/02/22-rdf-syntax-ns#" xmlns:sodipodi="http://sodipodi.sourceforge.net/DTD/sodipodi-0.dtd" xmlns:svg="http://www.w3.org/2000/svg"
	 xmlns="http://www.w3.org/2000/svg" xmlns:xlink="http://www.w3.org/1999/xlink" x="0px" y="0px" viewBox="0 0 1600 580"
	 style="enable-background:new 0 0 1600 580;" xml:space="preserve">
<style type="text/css">
	.st0{display:none;}
	.st1{display:inline;fill:#B4E2DF;}
	.st2{fill-opacity:9.411765e-02;}
	.st3{fill:url(#path9577_1_);}
	.st4{fill:#FFFFFF;fill-opacity:0.251;}
	.st5{fill:url(#path9571_1_);}
	.st6{fill:url(#path4625_1_);}
	.st7{fill:#FFFFFF;fill-opacity:0.1255;}
</style>
<defs>
	
	
		<inkscape:perspective  id="perspective4827" inkscape:persp3d-origin="372.04724 : 350.78739 : 1" inkscape:vp_x="0 : 526.18109 : 1" inkscape:vp_y="0 : 1000 : 0" inkscape:vp_z="744.09448 : 526.18109 : 1" sodipodi:type="inkscape:persp3d">
		</inkscape:perspective>
</defs>
<sodipodi:namedview  bordercolor="#666666" borderopacity="1.0" gridtolerance="10000" guidetolerance="5" id="base" inkscape:current-layer="layer3" inkscape:cx="27.497622" inkscape:cy="492.92822" inkscape:document-units="px" inkscape:pageopacity="0.0" inkscape:pageshadow="2" inkscape:zoom="1.5625" objecttolerance="5" pagecolor="#ffffff" showgrid="false">
	<inkscape:grid  enabled="true" id="grid6607" type="xygrid" units="" visible="true"></inkscape:grid>
</sodipodi:namedview>
<g id="layer2" inkscape:groupmode="layer" inkscape:label="Root" sodipodi:insensitive="true" class="st0">
	
		<rect id="rect9109" inkscape:export-filename="/Users/saman/Desktop/mn2_illo_wip2.png" inkscape:export-xdpi="90" inkscape:export-ydpi="90" class="st1" width="1600" height="580">
	</rect>
</g>
<g id="layer1" inkscape:groupmode="layer" inkscape:label="Layer 1">
	<path id="path9134" class="st2" d="M1254,211v9h-14v36h12l8,8v6h5v80h25V220h-21v-9H1254z M1195,235v17h20v-17H1195z M1195,253v2
		h20v-2H1195z M1565,255v17h20v-17H1565z M1194,256v3h1v15h2v-15h16v15h2v-15h1v-3H1194z M1240,261l-5,5v9h-50v220v20v15.6h35l5,4.9
		h-40h-20V515v-20V390l-22.5-20l-22.5,20v105h-40v-60h-10v-25h-5v25h-15v60h-60v20.8h20l5,4.9h-25h-5V520v-4.2V495v-50l-40,30v20H0
		v85h1095v-55h-40l5-5h40v25h400v-25h40l5,5h-40v55h95v-85h-10v-45h-30v45v15h10l-5,5h-10v-20V380l-45-25v85h15v35l-5-5v-25h-10h-5
		v-65h-15v-30h-5v30h-10v-30h-5v30h-20v115v10h35l5,5h-65v-5v-10v-5v-20l-15-12l-10-8v65l-5-5h-55v5l-5-5v-15v-5v-55h-15h-5v-30h-5
		v30h-10h-18h-37v60l-5-5v-60h20v-35h-30l-5-5h35h5v5v35h35v-75h-90l-5-5h55v-75h-5v-9l-5-5H1240z M1565,273v2h20v-2H1565z
		 M1564,276v3h1v15h2v-15h16v15h2v-15h1v-3H1564z M1220,280h5v5h-5V280z M1230,280h5v5h-5V280z M1240,280h5v5h-5V280z M1250,280h5v5
		h-5V280z M1220,290h5v5h-5V290z M1230,290h5v5h-5V290z M1240,290h5v5h-5V290z M1250,290h5v5h-5V290z M1530,295v65l30,15v50h10v-20
		h20V295H1530z M1220,300h5v5h-5V300z M1230,300h5v5h-5V300z M1240,300h5v5h-5V300z M1250,300h5v5h-5V300z M1540,300h5v5h-5V300z
		 M1550,300h5v5h-5V300z M1560,300h5v5h-5V300z M1570,300h5v5h-5V300z M1580,300h5v5h-5V300z M1220,310h5v5h-5V310z M1230,310h5v5
		h-5V310z M1240,310h5v5h-5V310z M1250,310h5v5h-5V310z M1540,310h5v5h-5V310z M1550,310h5v5h-5V310z M1560,310h5v5h-5V310z
		 M1570,310h5v5h-5V310z M1580,310h5v5h-5V310z M1390,311v9h-35v175h40v-50h5l10,8V320h-5v-9H1390z M1220,320h5v5h-5V320z M1230,320
		h5v5h-5V320z M1240,320h5v5h-5V320z M1250,320h5v5h-5V320z M1540,320h5v5h-5V320z M1550,320h5v5h-5V320z M1560,320h5v5h-5V320z
		 M1570,320h5v5h-5V320z M1580,320h5v5h-5V320z M1360,325h5v5h-5V325z M1370,325h5v5h-5V325z M1380,325h5v5h-5V325z M1390,325h5v5
		h-5V325z M1400,325h5v5h-5V325z M1220,330h5v5h-5V330z M1230,330h5v5h-5V330z M1240,330h5v5h-5V330z M1250,330h5v5h-5V330z
		 M1540,330h5v5h-5V330z M1550,330h5v5h-5V330z M1560,330h5v5h-5V330z M1570,330h5v5h-5V330z M1580,330h5v5h-5V330z M1360,335h5v5
		h-5V335z M1370,335h5v5h-5V335z M1380,335h5v5h-5V335z M1390,335h5v5h-5V335z M1400,335h5v5h-5V335z M1220,340h5v5h-5V340z
		 M1230,340h5v5h-5V340z M1240,340h5v5h-5V340z M1250,340h5v5h-5V340z M1558.8,340h15.5c5.4,0,9.8,4.3,9.8,9.8v5.5
		c0,5.1-4,9.3-9,9.7v0.1c0,5,0.9,8.2,4,10c-12,0-12-7-12-10h-8.2c-5.4,0-9.8-4.3-9.8-9.8v-5.5C1549,344.3,1553.3,340,1558.8,340z
		 M1360,345h5v5h-5V345z M1370,345h5v5h-5V345z M1380,345h5v5h-5V345z M1390,345h5v5h-5V345z M1400,345h5v5h-5V345z M1360,355h5v5
		h-5V355z M1370,355h5v5h-5V355z M1380,355h5v5h-5V355z M1390,355h5v5h-5V355z M1400,355h5v5h-5V355z M1360,365h5v5h-5V365z
		 M1370,365h5v5h-5V365z M1380,365h5v5h-5V365z M1390,365h5v5h-5V365z M1400,365h5v5h-5V365z M1360,375h5v5h-5V375z M1370,375h5v5
		h-5V375z M1380,375h5v5h-5V375z M1390,375h5v5h-5V375z M1400,375h5v5h-5V375z M1360,385h5v5h-5V385z M1370,385h5v5h-5V385z
		 M1380,385h5v5h-5V385z M1390,385h5v5h-5V385z M1400,385h5v5h-5V385z M1455,385h5v5h-5V385z M1465,385h5v5h-5V385z M1475,385h5v5
		h-5V385z M1515,385h5v5h-5V385z M1525,385h5v5h-5V385z M1535,385h5v5h-5V385z M1545,385h5v5h-5V385z M1360,395h5v5h-5V395z
		 M1370,395h5v5h-5V395z M1380,395h5v5h-5V395z M1390,395h5v5h-5V395z M1400,395h5v5h-5V395z M1455,395h5v5h-5V395z M1465,395h5v5
		h-5V395z M1475,395h5v5h-5V395z M1515,395h5v5h-5V395z M1525,395h5v5h-5V395z M1535,395h5v5h-5V395z M1545,395h5v5h-5V395z
		 M1130,400h5v5h-5V400z M1140,400h5v5h-5V400z M1150,400h5v5h-5V400z M1240,400h5v5h-5V400z M1250,400h5v5h-5V400z M1360,405h5v5
		h-5V405z M1370,405h5v5h-5V405z M1380,405h5v5h-5V405z M1455,405h5v5h-5V405z M1465,405h5v5h-5V405z M1475,405h5v5h-5V405z
		 M1515,405h5v5h-5V405z M1525,405h5v5h-5V405z M1535,405h5v5h-5V405z M1545,405h5v5h-5V405z M1130,410h5v5h-5V410z M1140,410h5v5
		h-5V410z M1150,410h5v5h-5V410z M1240,410h5v5h-5V410z M1250,410h5v5h-5V410z M1575,410v35h20v45h5v-80H1575z M1360,415h5v5h-5V415
		z M1370,415h5v5h-5V415z M1380,415h5v5h-5V415z M1515,415h5v5h-5V415z M1525,415h5v5h-5V415z M1535,415h5v5h-5V415z M1545,415h5v5
		h-5V415z M1130,420h5v5h-5V420z M1140,420h5v5h-5V420z M1150,420h5v5h-5V420z M1240,420h5v5h-5V420z M1250,420h5v5h-5V420z
		 M1360,425h5v5h-5V425z M1370,425h5v5h-5V425z M1380,425h5v5h-5V425z M1515,425h5v5h-5V425z M1525,425h5v5h-5V425z M1535,425h5v5
		h-5V425z M1545,425h5v5h-5V425z M1130,430h5v5h-5V430z M1140,430h5v5h-5V430z M1150,430h5v5h-5V430z M1360,435h5v5h-5V435z
		 M1370,435h5v5h-5V435z M1380,435h5v5h-5V435z M1535,435h5v5h-5V435z M1545,435h5v5h-5V435z M1060,440h5v5h-5V440z M1070,440h5v5
		h-5V440z M1130,440h5v5h-5V440z M1140,440h5v5h-5V440z M1150,440h5v5h-5V440z M1285,440h5v5h-5V440z M1295,440h5v5h-5V440z
		 M1305,440h5v5h-5V440z M1315,440h5v5h-5V440z M1325,440h5v5h-5V440z M1415,440v17l10,8l5,4v21v5v10h15v-10v-5v-50H1415z M1360,445
		h5v5h-5V445z M1370,445h5v5h-5V445z M1380,445h5v5h-5V445z M1535,445h5v5h-5V445z M1545,445h5v5h-5V445z M1060,450h5v5h-5V450z
		 M1070,450h5v5h-5V450z M1130,450h5v5h-5V450z M1140,450h5v5h-5V450z M1150,450h5v5h-5V450z M1285,450h5v5h-5V450z M1295,450h5v5
		h-5V450z M1305,450h5v5h-5V450z M1315,450h5v5h-5V450z M1325,450h5v5h-5V450z M1467.8,450h25.5c5.4,0,9.8,4.3,9.8,9.8v15.5
		c0,5.4-4.3,9.8-9.8,9.8h-2.2c0,5,0.9,8.2,4,10c-12,0-12-7-12-10h-15.2c-5.4,0-9.8-4.3-9.8-9.8v-15.5
		C1458,454.3,1462.3,450,1467.8,450z M1360,455h5v5h-5V455z M1370,455h5v5h-5V455z M1380,455h5v5h-5V455z M1425,455h5v5h-5V455z
		 M1435,455h5v5h-5V455z M1535,455h5v5h-5V455z M1545,455h5v5h-5V455z M1570,455h5v5h-5V455z M1580,455h5v5h-5V455z M1060,460h5v5
		h-5V460z M1070,460h5v5h-5V460z M1130,460h5v5h-5V460z M1140,460h5v5h-5V460z M1150,460h5v5h-5V460z M1285,460h5v5h-5V460z
		 M1295,460h5v5h-5V460z M1305,460h5v5h-5V460z M1315,460h5v5h-5V460z M1325,460h5v5h-5V460z M965,465h5v5h-5V465z M975,465h5v5h-5
		V465z M1435,465h5v5h-5V465z M1535,465h5v5h-5V465z M1545,465h5v5h-5V465z M1580,465h5v5h-5V465z M1130,470h5v5h-5V470z M1140,470
		h5v5h-5V470z M1150,470h5v5h-5V470z M1285,470h5v5h-5V470z M1295,470h5v5h-5V470z M1305,470h5v5h-5V470z M1315,470h5v5h-5V470z
		 M1325,470h5v5h-5V470z M1405,470h5v5h-5V470z M1415,470h5v5h-5V470z M965,475h5v5h-5V475z M975,475h5v5h-5V475z M1580,475h5v5h-5
		V475z M1130,480h5v5h-5V480z M1140,480h5v5h-5V480z M1150,480h5v5h-5V480z M1415,480h5v5h-5V480z M965,485h5v5h-5V485z M975,485h5
		v5h-5V485z M1130,490h5v5h-5V490z M1140,490h5v5h-5V490z M1150,490h5v5h-5V490z M1260,490h40l5,5h-40v35h-5V490z M1130,500h5v5h-5
		V500z M1140,500h5v5h-5V500z M1150,500h5v5h-5V500z M1280,509h25v16h-25V509z M1130,510h5v5h-5V510z M1140,510h5v5h-5V510z
		 M1150,510h5v5h-5V510z M1310,512h4l3,3h-7V512z M1467,522h4v3h-7L1467,522z M1473,522h6l3,3h-9V522z M1065,530h5v5h-5V530z
		 M1075,530h5v5h-5V530z M1085,530h5v5h-5V530z M1510,530h5v5h-5V530z M1520,530h5v5h-5V530z M1530,530h5v5h-5V530z M1065,540h5v5
		h-5V540z M1075,540h5v5h-5V540z M1085,540h5v5h-5V540z M1510,540h5v5h-5V540z M1520,540h5v5h-5V540z M1530,540h5v5h-5V540z
		 M1065,550h5v5h-5V550z M1075,550h5v5h-5V550z M1085,550h5v5h-5V550z M1510,550h5v5h-5V550z M1520,550h5v5h-5V550z M1530,550h5v5
		h-5V550z M1065,560h5v5h-5V560z M1075,560h5v5h-5V560z M1085,560h5v5h-5V560z M1100,560v20h400v-20H1100z M1510,560h5v5h-5V560z
		 M1520,560h5v5h-5V560z M1530,560h5v5h-5V560z"/>
	
		<g id="g4860" transform="matrix(-1,0,0,1,2390,105)" inkscape:export-filename="/Users/saman/Desktop/mn2_illo_wip2.png" inkscape:export-xdpi="90" inkscape:export-ydpi="90">
		
			<linearGradient id="path9577_1_" gradientUnits="userSpaceOnUse" x1="75" y1="90" x2="75" y2="62.4955" gradientTransform="matrix(-1 0 0 -1 1290 475)">
			<stop  offset="0" style="stop-color:#000000;stop-opacity:0.1255"/>
			<stop  offset="1" style="stop-color:#000000;stop-opacity:0"/>
		</linearGradient>
		<path id="path9577" sodipodi:nodetypes="ccccc" class="st3" d="M1210,425h10v-90h-10V425z"/>
	</g>
	<path id="rect9288" class="st4" d="M1497.8,210c-5.4,0-9.8,4.3-9.8,9.8v25.5c0,5.4,4.3,9.8,9.8,9.8h40.2c0,3,0,10,12,10
		c-3.1-1.8-4-5-4-10h2.2c5.4,0,9.8-4.3,9.8-9.8v-25.5c0-5.4-4.3-9.8-9.8-9.8H1497.8z M1309.8,300c-5.4,0-9.8,4.3-9.8,9.8v25.5
		c0,5.4,4.3,9.8,9.8,9.8h2.2c0,5-0.9,8.2-4,10c12,0,12-7,12-10h15.2c5.4,0,9.8-4.3,9.8-9.8v-25.5c0-5.4-4.3-9.8-9.8-9.8H1309.8z
		 M1114.8,320c-5.4,0-9.8,4.3-9.8,9.8v15.5c0,5.4,4.3,9.8,9.8,9.8h15.2c0,3,0,10,12,10c-3.1-1.8-4-5-4-10h2.2c5.4,0,9.8-4.3,9.8-9.8
		v-15.5c0-5.4-4.3-9.8-9.8-9.8H1114.8z M1558.8,340c-5.4,0-9.8,4.3-9.8,9.8v5.5c0,5.4,4.3,9.8,9.8,9.8h8.2c0,3,0,10,12,10
		c-3.1-1.8-4-5-4-10v-0.1c5-0.4,9-4.5,9-9.7v-5.5c0-5.4-4.3-9.8-9.8-9.8H1558.8z M914.8,450c-5.4,0-9.8,4.3-9.8,9.8v5.5
		c0,5.4,4.3,9.8,9.8,9.8h8.2c0,3,0,10,12,10c-3.1-1.8-4-5-4-10v-0.1c5-0.4,9-4.5,9-9.7v-5.5c0-5.4-4.3-9.8-9.8-9.8H914.8z
		 M1467.8,450c-5.4,0-9.8,4.3-9.8,9.8v15.5c0,5.4,4.3,9.8,9.8,9.8h15.2c0,3,0,10,12,10c-3.1-1.8-4-5-4-10h2.2c5.4,0,9.8-4.3,9.8-9.8
		v-15.5c0-5.4-4.3-9.8-9.8-9.8H1467.8z"/>
	
		<linearGradient id="path9571_1_" gradientUnits="userSpaceOnUse" x1="2152.5" y1="239.9944" x2="2152.5" y2="199.6505" gradientTransform="matrix(-1 0 0 -1 3490 685)">
		<stop  offset="0" style="stop-color:#000000;stop-opacity:0.1255"/>
		<stop  offset="1" style="stop-color:#000000;stop-opacity:0"/>
	</linearGradient>
	
		<path id="path9571" inkscape:export-filename="/Users/saman/Desktop/mn2_illo_wip2.png" inkscape:export-xdpi="90" inkscape:export-ydpi="90" sodipodi:nodetypes="ccccccc" class="st5" d="
		M1350,490h-10v-60h-15v-30l25-25V490z"/>
	<path id="rect3088" class="st4" d="M1239.8,170c-5.4,0-9.8,4.3-9.8,9.8v5.5c0,5.4,4.3,9.8,9.8,9.8h8.2c0,3,0,10,12,10
		c-3.1-1.8-4-5-4-10v-0.1c5-0.4,9-4.5,9-9.7v-5.5c0-5.4-4.3-9.8-9.8-9.8H1239.8z M1389.8,200c-5.4,0-9.8,4.3-9.8,9.8v5.5
		c0,5.1,4,9.3,9,9.7v0.1c0,5-0.9,8.2-4,10c12,0,12-7,12-10h8.2c5.4,0,9.8-4.3,9.8-9.8v-5.5c0-5.4-4.3-9.8-9.8-9.8H1389.8z
		 M1147.4,212.2c-2.5,0-5,0.2-7.4,0.7c-5.3,6.9-6,17.2-4.9,27.1c1.1,10,4.1,19.7,6,25h12.7c1.9-5.3,4.9-14.9,6-25
		c1.1-9.9,0.3-20.3-4.9-27.1c0,0,0,0,0,0C1152.4,212.5,1149.9,212.2,1147.4,212.2z M1138.5,213.2c-4.8,1-9,3-11.5,5.8
		c-10.6,11.9-5,30,5,40l4.8,6h3.2c-2-5.4-4.9-14.9-6-24.9C1132.9,230.4,1133.6,220.3,1138.5,213.2z M1156.2,213.2
		c5,7.2,5.6,17.3,4.5,26.9c-1.1,10-4,19.5-6,24.9h2.4l4.8-6c10-10,14.8-27.4,5-40C1164.8,216.2,1160.9,214.2,1156.2,213.2z
		 M1444,241l-1.2,1h31.2v-1H1444z M1368.8,241.2c-1.9,0-4.1,0.1-6.3,0.1c-0.8,0-1.6,0-2.4,0.1c-0.2,0-0.4,0-0.6,0
		c-1.7,0.1-3.5,0.1-5.3,0.2c-0.2,0-0.4,0-0.6,0c-1.5,0.1-3.1,0.2-4.7,0.3c-0.1,0-0.2,0-0.3,0c-0.2,0-0.5,0-0.7,0.1
		c-1.5,0.1-3.1,0.3-4.7,0.5c-1.2,0.1-2.4,0.3-3.6,0.4c-0.4,0.1-0.9,0.1-1.3,0.2c-0.6,0.1-1.3,0.2-1.9,0.3c-0.3,0-0.6,0.1-0.9,0.2
		c-0.5,0.1-1.1,0.2-1.6,0.3c-0.1,0-0.1,0-0.2,0c-0.9,0.2-1.7,0.3-2.5,0.5c-1.9,0.4-3.7,0.8-5.5,1.3c-0.4,0.1-0.9,0.2-1.3,0.3
		c-0.6,0.2-1.1,0.3-1.7,0.5c-0.9,0.3-1.8,0.6-2.7,0.9c-0.9,0.3-1.7,0.6-2.6,0.9c-0.1,0.1-0.3,0.1-0.4,0.2c-0.5,0.2-1.1,0.5-1.6,0.7
		c-0.5,0.2-0.9,0.4-1.3,0.6c-0.4,0.2-0.8,0.4-1.2,0.6c-0.5,0.2-1,0.5-1.4,0.8c-0.3,0.1-0.5,0.3-0.8,0.4c-0.3,0.2-0.6,0.3-0.8,0.5
		c-0.5,0.3-1,0.6-1.5,0.9c-0.3,0.2-0.5,0.4-0.8,0.5c-0.4,0.2-0.7,0.5-1.1,0.8c-0.4,0.3-0.7,0.6-1.1,0.8c-0.2,0.2-0.4,0.4-0.7,0.6
		c-0.4,0.4-0.9,0.8-1.3,1.2c-0.4,0.4-0.8,0.8-1.2,1.2c-0.1,0.1-0.3,0.3-0.4,0.4c-0.3,0.3-0.5,0.6-0.7,0.9c-0.2,0.3-0.4,0.5-0.6,0.8
		c0,0-0.1,0.1-0.1,0.1c-0.2,0.3-0.4,0.6-0.6,0.8c-0.2,0.2-0.3,0.5-0.5,0.7c0,0.1-0.1,0.1-0.1,0.2c-0.2,0.3-0.3,0.5-0.4,0.8
		c-0.2,0.4-0.4,0.7-0.6,1.1c0,0,0,0.1-0.1,0.1c-0.1,0.3-0.3,0.6-0.4,1c-0.2,0.4-0.3,0.7-0.4,1.1c0.1,0.4,0.3,0.8,0.5,1.2
		c0.1,0.2,0.2,0.5,0.3,0.7c0.2,0.4,0.4,0.9,0.7,1.3c0.1,0.1,0.2,0.3,0.2,0.4c0.1,0.2,0.2,0.4,0.3,0.6c0.1,0.2,0.3,0.5,0.4,0.7
		c0.2,0.3,0.4,0.6,0.6,0.9c0.1,0.1,0.2,0.2,0.3,0.3c0.2,0.2,0.3,0.5,0.5,0.7c0.2,0.2,0.3,0.4,0.5,0.6c0.1,0.1,0.2,0.3,0.3,0.4
		c0.1,0.1,0.1,0.1,0.2,0.2c0.1,0.1,0.2,0.2,0.3,0.3c0.2,0.2,0.4,0.4,0.6,0.7c0.1,0.1,0.1,0.1,0.2,0.2c0.2,0.2,0.4,0.4,0.6,0.5
		c0.6,0.5,1.2,1.1,1.9,1.6c0.7,0.5,1.3,1,2,1.5c0,0,0,0,0,0c0.7,0.5,1.4,0.9,2.2,1.3c0.7,0.4,1.5,0.8,2.3,1.2
		c0.8,0.4,1.6,0.8,2.4,1.2c1.4,0.6,2.9,1.2,4.3,1.8c0.3,0.1,0.5,0.2,0.8,0.3c0.9,0.3,1.8,0.6,2.7,0.9c0.2,0.1,0.5,0.1,0.7,0.2
		c0.7,0.2,1.4,0.4,2.1,0.6c0.8,0.2,1.5,0.4,2.3,0.6c0.2,0,0.4,0.1,0.6,0.1c0.6,0.1,1.1,0.3,1.7,0.4c1.4,0.3,2.7,0.6,4.1,0.8
		c0.7,0.1,1.3,0.2,2,0.3c0.9,0.2,1.8,0.3,2.8,0.4c0.1,0,0.2,0,0.3,0c1.4,0.2,2.7,0.4,4.1,0.5c0.8,0.1,1.7,0.2,2.5,0.2h58.6
		c3-0.2,5.9-0.5,8.7-0.7c1.5-0.1,2.9-0.3,4.3-0.4c0.5-0.1,1-0.1,1.4-0.2c0.2,0,0.4,0,0.5-0.1c1.7-0.2,3.3-0.4,4.9-0.6
		c0,0,0.1,0,0.1,0c3.5-0.5,6.9-0.9,10.1-1.5c1.2-0.2,2.3-0.4,3.4-0.6l1.3,1h35v-5.3l-9.1-2.4c0.3-0.1,0.6-0.2,0.8-0.3
		c0.8-0.3,1.6-0.6,2.4-0.8c0.1,0,0.1-0.1,0.2-0.1c0.3-0.1,0.6-0.3,0.9-0.4c1.1-0.4,2.3-0.9,3.3-1.3c0.2-0.1,0.4-0.2,0.6-0.3
		c0.7-0.3,1.3-0.6,1.9-0.9c0.1-0.1,0.2-0.1,0.3-0.2c0.6-0.3,1.1-0.5,1.6-0.8c0.2-0.1,0.3-0.1,0.4-0.2c0.5-0.2,0.9-0.5,1.3-0.7
		c0.6-0.3,1.1-0.6,1.6-0.9c0.4-0.2,0.7-0.5,1.1-0.7c0.1-0.1,0.2-0.1,0.3-0.2c0.2-0.1,0.4-0.3,0.6-0.4c0.2-0.1,0.4-0.3,0.6-0.4
		c0.2-0.2,0.4-0.3,0.7-0.5c0.2-0.1,0.3-0.2,0.4-0.3c0.2-0.2,0.4-0.4,0.6-0.5c0.1-0.1,0.2-0.2,0.3-0.3c0.2-0.2,0.4-0.4,0.6-0.6
		c0.1-0.1,0.1-0.1,0.2-0.2c0.2-0.2,0.4-0.4,0.5-0.6c0,0,0.1-0.1,0.1-0.1c0.2-0.2,0.3-0.4,0.5-0.6c0,0,0,0,0-0.1
		c0.1-0.2,0.2-0.4,0.3-0.6c-0.5-1.1-1.7-2.4-3.6-3.9c-0.8-0.6-1.7-1.2-2.7-1.9c-3.6-2.3-8.9-4.8-16-7.2l9.2-2.4V245h-34.9l-1.7,1.3
		c-1-0.2-2.1-0.4-3.1-0.5c-3.2-0.5-6.6-1-10.2-1.5c-14.3-1.8-31.3-3-51.4-3.2C1371.5,241.2,1370.2,241.2,1368.8,241.2z M1441.5,243
		l-1.2,1h33.7v-1H1441.5z M1349.5,243.5c2.2,0,4.4,0.1,6.7,0.3c6.2,2.9,4.4,3.9,9.2,3.9s9.3,2.4,11,3.1s1.8-0.9,1.9-1.4
		s-1.6,0-1.9-1.1s4.4-1.9,5.4-2.1s10.3,6.2,11,7.6s-1.1,1.9-2,1.5s-1.7-0.6-2.3,0.2s-2.4,0.1-2.7-0.5s0.4-1.4,0.1-2.2
		s-1.8-1.4-2.3-1.8s-2,2.1-2.5,2.9s1.8,3.3,4.9,3.8s6.7,1.8,7.4,2.6s1.7,2.2,1.7,3.2s0.6,0.6,2.9,1.4s0.4,2.9,0.1,4.5
		s2.6,4.4,3.6,5.5s0.2,3.6,0.2,4.6s-3.1,3.9-3.6,4.4s-4.8-0.7-5.6-0.7s-0.8,0.2-2.4,1.4s-0.2,1.4-0.6,2.8s-14.1,1.5-14.1,1.5
		s-0.4-1.6-0.5-2s-3.3-4.4-3.7-5.2s1.9-0.6,2.8-0.8s4.8-6.9,4.7-7.8s-0.1-0.8-0.1-1.2s5.2-1.3,5.8-1.4s2.3,0.4,2.8,0.4
		s2.7-2.2,2.9-2.6s5.2,0.4,5.6,0.3s-3.2-3.8-3.9-4.2s-2.3-0.8-2.6-0.6s-1.9,2.2-2.3,2.4s-0.3-2.2-0.3-2.2s-0.6,0.6-1.1,1
		s-1.4,2-1.8,2.6s-0.9-1.4-1.4-1.6s-2,2-2.2,1.9s-2.8,0.3-3.1,0.3s0.2,3.5,0.1,4.4s-3.4,6.6-3.8,7.1s-5.9-2.9-6.9-3.9s1-1.2,1.4-1.7
		s-1.3-0.5-2.7-0.3s-5.2,1.4-5.4,4.1s-0.9,3.6-1.1,4s-2.2-3.9-3.3-4.8s-1.1-1-2.3-1.6s-3.4,1.3-4,2.6s-3.9,3-4.3,3.1
		s-1.6-1.5-1.6-1.9s2.4-2.9,1.9-3.6s-3.6,0.1-4.2-0.6s-2.9-1.4-2.7-2.8s1.7-3.4-0.2-4.8s-4.4-2.9-5.4-3.2s-3.2-2.1-3.3-4.1
		s2.2-2.6,1.6-3.4s-3.2-2-5.8-2.2s-6.6-2.1-6.9-2.1s2.7,2.8,3.7,4.1s0.9,3.1-0.1,3.6s-3.1-2.6-3.4-3.8s-5.7-3.1-6-3.2
		C1312,253.3,1328.4,243.5,1349.5,243.5z M1405.4,244.2c12,0.3,14.4,1.8,14.4,1.8c-1.6,0.8-0.9,4.1-2.3,5.9s-2.7,2.7-3.6,1.1
		s-1.5-4-4.1-4.7S1405.8,247.4,1405.4,244.2z M1423.4,245.5l10.9,1.8c0,0,0,0.3,0,0.7c5.7,0.9,23.8,4,25.7,5.8
		c-4.9,2.4-8.1,6.8-8.5,8.9s-0.8,4.5-0.8,5.1s-5.1,4.4-5.9,5.4s-2.1,2.9-2.4,3.9s-4.9,1.6-6.4,2.4s-2.2,2.4-3.8,2.8
		s-2.3,2.8-2.3,2.8s-13.5,2.7-13.3,1.9s0.1-1.6,1.6-3.3s3.4-1.5,4.8-2.4s6.4-0.8,6.9-0.1s2.2,1,2.8-0.4s1.9-2.1,2.5-2.6
		s-0.9-0.9-0.7-1.8s2.7,1.6,3.8,0.3s1.5-3.9-0.4-4.7s-5.6-0.3-7.2-2.2s-4.9-5.1-5.5-5.9s0.5-1.2,1.3-2.2c-0.8-0.8-5.4-0.8-6.1-1.6
		s2.1-3.4,3.5-4.8s2.1-0.3,3.1-1.3s3.5-0.3,3.3,1.2s-0.6,2.6,0.2,3.4s0.6-0.9,2.8-1.6s5.6-2.5,3.7-4.7c-0.9-1-2.3-2.7-3.1-2.9
		c-1.8-0.5-2.6,1.3-4.2,2.2c-1.3,0.7-3.2,0.9-4.6,1.2c-1.2,0.3,0.4-2.8,0-3.4s-1.2,0.9-1.9,0.3S1423.4,245.5,1423.4,245.5z
		 M1401.9,249.8c0.2,0,0.3,0,0.5,0c0.7,0,1.6,0.2,2.3,0.5c0,0.1,1,1.8-1.6,1.2s-2.6-0.6-2.2-1.2C1401,250,1401.4,249.9,1401.9,249.8
		z M1396.4,256c0.6-0.1-1.5,2.6-0.3,2.6c0.8,0,0.4-1,1.6-0.8s1.2,1.5,0.2,1.5s-0.6,1.2-1.9,0.9s-1.8-0.1-2.2-0.9s0.2-2.1,2.5-3.2
		C1396.3,256,1396.4,256,1396.4,256z M1137.6,266l2.4,3h14l2.4-3H1137.6z M1141,270v3h2v-3H1141z M1151,270v3h2v-3H1151z M1140,274
		l2,7h10l2-7H1140z M1440.2,288l1.2,1h32.5v-1H1440.2z M1442.8,290l1.2,1h30v-1H1442.8z M1356.8,291l4.3,10.2h25.1l4.3-10.2H1356.8z
		 M1365.6,293.2c1.4,0,2.6,1.1,2.6,2.5c0,1.4-1.2,2.6-2.6,2.6c-1.4,0-2.5-1.2-2.5-2.6C1363.1,294.3,1364.2,293.3,1365.6,293.2z
		 M1373.7,293.2c1.4,0,2.5,1.1,2.5,2.5c0,1.4-1.1,2.6-2.5,2.6c-1.4,0-2.6-1.2-2.6-2.6C1371.1,294.3,1372.3,293.3,1373.7,293.2z
		 M1381.7,293.2c1.4,0,2.5,1.1,2.5,2.5c0,1.4-1.1,2.6-2.5,2.6c-1.4,0-2.6-1.2-2.6-2.6C1379.1,294.3,1380.3,293.3,1381.7,293.2z
		 M1517,299c-3,0-17,15-17,15h-50c-5.5,0-15,4.3-15,9.6c0,4.8,9.5,4.8,15,4.8c0,0,7.5,0,10,0c0,0,26.2,11.6,32,15
		c0.4,0.2,0.7,0.4,1,0.5V328h1v15.8c0.9-0.4,1-2.3,1-5.8c0-2.3,0-6,0-9.6c10,0,25-4.8,25-4.8V319c0-3,0-5.6,0.1-7.8
		C1520.2,302.2,1520.2,299,1517,299z M1494,300.5V313h1C1495,306,1495.6,301.2,1494,300.5z M1493,300.6c-0.3,0.1-0.6,0.2-1,0.4
		c-3.9,2.3-16.8,8.3-25,12h26V300.6z M1452.5,318.4c1.4,0,2.5,1.1,2.5,2.5s-1.1,2.5-2.5,2.5s-2.5-1.1-2.5-2.5
		S1451.1,318.4,1452.5,318.4z M1462.5,318.4c1.4,0,2.5,1.1,2.5,2.5s-1.1,2.5-2.5,2.5s-2.5-1.1-2.5-2.5S1461.1,318.4,1462.5,318.4z
		 M1472.5,318.4c1.4,0,2.5,1.1,2.5,2.5s-1.1,2.5-2.5,2.5s-2.5-1.1-2.5-2.5S1471.1,318.4,1472.5,318.4z M1482.5,318.4
		c1.4,0,2.5,1.1,2.5,2.5s-1.1,2.5-2.5,2.5s-2.5-1.1-2.5-2.5S1481.1,318.4,1482.5,318.4z M1492.5,318.4c1.4,0,2.5,1.1,2.5,2.5
		s-1.1,2.5-2.5,2.5s-2.5-1.1-2.5-2.5S1491.1,318.4,1492.5,318.4z M1434.4,340.9c-10.7,0-19.4,1.7-19.4,3.9c0,2.1,8.2,3.7,18.4,3.8
		v3.3c-5.1,0.5-9,4.8-9,9.9c0,3.7,2,6.9,5,8.7v2.3h-7l2,2h20v-2h-5v-2.3c2.4-1.4,4.2-3.8,4.8-6.7h10.5c0.8,2.3,3,4,5.7,4
		c3.3,0,6-2.7,6-6s-2.7-6-6-6c-2.6,0-4.9,1.7-5.7,4.1h-10.5c-0.8-4.3-4.4-7.6-8.8-8v-3.3c10.3-0.1,18.4-1.8,18.4-3.8
		C1453.8,342.6,1445.1,340.9,1434.4,340.9z M1434.4,342.9c0.6,0,1,0.4,1,1v1h-2v-1C1433.4,343.4,1433.9,342.9,1434.4,342.9z
		 M1434.8,353.2v9.1h-9C1425.8,357.3,1429.8,353.2,1434.8,353.2z M1460.4,357.9c2.2,0,4,1.8,4,4c0,2.2-1.8,4-4,4
		c-1.8,0-3.3-1.2-3.8-2.9h3.4v1.7h1V363v-2v-2h-1v2h-3.5C1456.9,359.2,1458.5,357.9,1460.4,357.9z M1431.4,371.5
		c0.9,0.3,2,0.4,3,0.4c1,0,2.1-0.1,3-0.4v1.4h-6V371.5z"/>
	
		<linearGradient id="path4625_1_" gradientUnits="userSpaceOnUse" x1="2390" y1="219.8419" x2="2390" y2="200.7108" gradientTransform="matrix(-1 0 0 -1 3490 685)">
		<stop  offset="0" style="stop-color:#000000;stop-opacity:0.1255"/>
		<stop  offset="1" style="stop-color:#000000;stop-opacity:0"/>
	</linearGradient>
	
		<path id="path4625" inkscape:export-filename="/Users/saman/Desktop/mn2_illo_wip2.png" inkscape:export-xdpi="90" inkscape:export-ydpi="90" sodipodi:nodetypes="ccccc" class="st6" d="
		M1085,490h30v-40h-30V490z"/>
	
		<g id="g4778" transform="matrix(-1,0,0,1,2390,105)" inkscape:export-filename="/Users/saman/Desktop/mn2_illo_wip2.png" inkscape:export-xdpi="90" inkscape:export-ydpi="90">
	</g>
	
		<g id="g4785" transform="matrix(-1,0,0,1,2760,125)" inkscape:export-filename="/Users/saman/Desktop/mn2_illo_wip2.png" inkscape:export-xdpi="90" inkscape:export-ydpi="90">
	</g>
	<path id="rect4874" class="st2" d="M1510,483v17h20v-17H1510z M1510,501v2h20v-2H1510z M1509,504v3h1v13h2v-13h16v13h2v-13h1v-3
		H1509z M1275,505v25h5c0,2.8,2.2,5,5,5s5-2.2,5-5h20c0,2.8,2.2,5,5,5s5-2.2,5-5h5v-15h-5l-5-5h-5v-5H1275z M1280,509h25v16h-25V509
		z M1310,512h4l3,3h-7V512z M1465,520l-5,5h-10v10h3.6c0.3,2.2,2.1,4,4.4,4s4.2-1.8,4.4-4h15.1c0.3,2.2,2.1,4,4.4,4s4.2-1.8,4.4-4
		h3.6v-10h-5l-5-5H1465z M1467,522h4v3h-7L1467,522z M1473,522h6l3,3h-9V522z"/>
	<path id="rect4952" class="st4" d="M1343,500v2h8v-2H1343z M1363,500v2h8v-2H1363z M1383,500v2h8v-2H1383z M1280,509v16h25v-16
		H1280z M1310,512v3h7l-3-3H1310z M1467,522l-3,3h7v-3H1467z M1473,522v3h9l-3-3H1473z M1112,551v2h8v-2H1112z M1132,551v2h8v-2
		H1132z M1152,551v2h8v-2H1152z M1172,551v2h8v-2H1172z M1192,551v2h8v-2H1192z M1212,551v2h8v-2H1212z M1232,551v2h8v-2H1232z
		 M1252,551v2h8v-2H1252z M1272,551v2h8v-2H1272z M1292,551v2h8v-2H1292z M1312,551v2h8v-2H1312z M1332,551v2h8v-2H1332z M1352,551
		v2h8v-2H1352z M1372,551v2h8v-2H1372z M1392,551v2h8v-2H1392z M1412,551v2h8v-2H1412z M1432,551v2h8v-2H1432z M1452,551v2h8v-2
		H1452z M1472,551v2h8v-2H1472z M1492,551v2h8v-2H1492z"/>
	
		<g id="g5220" transform="translate(337.00001,-5)" inkscape:export-filename="/Users/saman/Desktop/mn2_illo_wip2.png" inkscape:export-xdpi="90" inkscape:export-ydpi="90">
	</g>
	<path id="path6405" class="st7" d="M1360,130c-4.7,0-8.6,3.3-9.7,7.7c-1-0.7-2.3-1.1-3.6-1.1c-3.7,0-6.6,3-6.6,6.7s3,6.6,6.6,6.6
		h26.6c3.7,0,6.6-3,6.6-6.6s-3-6.7-6.6-6.7c-1.3,0-2.6,0.4-3.6,1.1C1368.6,133.3,1364.7,130,1360,130z M1470,145
		c-4.7,0-8.6,3.3-9.7,7.7c-1-0.7-2.3-1.1-3.6-1.1c-3.7,0-6.6,3-6.6,6.7s3,6.6,6.6,6.6h26.6c3.7,0,6.6-3,6.6-6.6s-3-6.7-6.6-6.7
		c-1.3,0-2.6,0.4-3.6,1.1C1478.6,148.3,1474.7,145,1470,145z M1170,160c-4.7,0-8.6,3.3-9.7,7.7c-1-0.7-2.3-1.1-3.6-1.1
		c-3.7,0-6.6,3-6.6,6.7s3,6.6,6.6,6.6h26.6c3.7,0,6.6-3,6.6-6.6s-3-6.7-6.6-6.7c-1.3,0-2.6,0.4-3.6,1.1
		C1178.6,163.3,1174.7,160,1170,160z M1534.7,160.1c-4.7,0-8.6,3.3-9.7,7.7c-1-0.7-2.3-1.1-3.6-1.1c-3.7,0-6.7,3-6.7,6.7
		s3,6.6,6.7,6.6h26.5c3.7,0,6.6-3,6.6-6.6s-3-6.7-6.6-6.7c-1.3,0-2.6,0.4-3.6,1.1C1543.3,163.4,1539.4,160.1,1534.7,160.1z
		 M1205,180c-4.9,0-9.1,2.8-11.2,6.8c-1.6-1.1-3.5-1.7-5.6-1.7c-4.7,0-8.7,3.3-9.7,7.7c-1-0.7-2.3-1.1-3.6-1.1c-3.7,0-6.6,3-6.6,6.7
		c0,3.7,3,6.6,6.6,6.6h45c3.7,0,6.8-3,6.8-6.8c0-3.7-3-6.8-6.8-6.8c-0.9,0-1.7,0.2-2.5,0.5C1217.2,185.3,1211.7,180,1205,180z
		 M1315,180c-6.7,0-12.2,5.3-12.5,12c-0.8-0.3-1.6-0.5-2.5-0.5c-3.7,0-6.8,3-6.8,6.8c0,3.7,3,6.8,6.8,6.8h45c3.7,0,6.6-3,6.6-6.6
		c0-3.7-3-6.7-6.6-6.7c-1.3,0-2.6,0.4-3.6,1.1c-1-4.4-5-7.7-9.7-7.7c-2.1,0-4,0.6-5.6,1.7C1324.1,182.8,1319.9,180,1315,180z
		 M1440,180c-6.7,0-12.2,5.3-12.5,12c-0.8-0.3-1.6-0.5-2.5-0.5c-3.7,0-6.8,3-6.8,6.8c0,3.7,3,6.8,6.8,6.8h45c3.7,0,6.6-3,6.6-6.6
		s-3-6.7-6.6-6.7c-1.3,0-2.6,0.4-3.6,1.1c-1-4.4-5-7.7-9.7-7.7c-2.1,0-4,0.6-5.6,1.7C1449.1,182.8,1444.9,180,1440,180z
		 M1507.8,184.5c-4.8,0-8.9,3.4-10,7.9c-0.8-0.4-1.8-0.6-2.8-0.6c-3.6,0-6.5,2.9-6.5,6.5s2.9,6.8,6.5,6.8h12.8
		c5.7,0,10.2-4.6,10.2-10.2S1513.4,184.5,1507.8,184.5z M1571.7,185.1c-4.7,0-8.6,3.3-9.7,7.7c-1-0.7-2.3-1.1-3.6-1.1
		c-3.7,0-6.7,3-6.7,6.7s3,6.6,6.7,6.6h26.5c3.7,0,6.6-3,6.6-6.6s-3-6.7-6.6-6.7c-1.3,0-2.6,0.4-3.6,1.1
		C1580.4,188.4,1576.4,185.1,1571.7,185.1z M1100,207.1c-4.8,0-8.9,3.4-10,7.9c-0.8-0.4-1.8-0.6-2.8-0.6c-3.6,0-6.5,2.9-6.5,6.5
		s2.9,6.8,6.5,6.8h12.8c5.7,0,10.2-4.6,10.2-10.2S1105.6,207.1,1100,207.1z M1458.3,213.1c-4.7,0-8.7,3.3-9.7,7.7
		c-1-0.7-2.3-1.1-3.6-1.1c-3.7,0-6.6,3-6.6,6.7s3,6.6,6.6,6.6h26.5c3.7,0,6.7-3,6.7-6.6s-3-6.7-6.7-6.7c-1.3,0-2.6,0.4-3.6,1.1
		C1466.9,216.4,1463,213.1,1458.3,213.1z M1316.7,215.1c-4.7,0-8.6,3.3-9.7,7.7c-1-0.7-2.3-1.1-3.6-1.1c-3.7,0-6.7,3-6.7,6.7
		s3,6.6,6.7,6.6h26.5c3.7,0,6.6-3,6.6-6.6s-3-6.7-6.6-6.7c-1.3,0-2.6,0.4-3.6,1.1C1325.4,218.4,1321.4,215.1,1316.7,215.1z
		 M1021.5,260c-6.7,0-12.2,5.3-12.5,12c-0.8-0.3-1.6-0.5-2.5-0.5c-3.7,0-6.8,3-6.7,6.8c0,3.7,3,6.8,6.7,6.8h45c3.7,0,6.6-3,6.6-6.6
		s-3-6.7-6.6-6.7c-1.3,0-2.6,0.4-3.6,1.1c-1-4.4-5-7.7-9.7-7.7c-2.1,0-4,0.6-5.6,1.7C1030.6,262.8,1026.4,260,1021.5,260z
		 M1123.5,287.8c-5.7,0-10.2,4.6-10.2,10.2s4.6,10.2,10.2,10.2h12.8c3.6,0,6.5-3.2,6.5-6.8s-2.9-6.5-6.5-6.5c-1,0-1.9,0.2-2.8,0.6
		C1132.4,291.1,1128.3,287.8,1123.5,287.8z"/>
	<g id="g8620" transform="translate(0,105)">
		<g id="g9439" transform="translate(-679.99999,-60)">
			
				<g id="g9443" transform="translate(-150,130)" inkscape:export-filename="/Users/saman/Desktop/mn2_illo_wip2.png" inkscape:export-xdpi="90" inkscape:export-ydpi="90">
			</g>
			
				<g id="g9458" transform="translate(-150,150)" inkscape:export-filename="/Users/saman/Desktop/mn2_illo_wip2.png" inkscape:export-xdpi="90" inkscape:export-ydpi="90">
			</g>
		</g>
	</g>
	<path id="rect8514" class="st4" d="M1220,280v5h5v-5H1220z M1230,280v5h5v-5H1230z M1240,280v5h5v-5H1240z M1250,280v5h5v-5H1250z
		 M1220,290v5h5v-5H1220z M1230,290v5h5v-5H1230z M1240,290v5h5v-5H1240z M1250,290v5h5v-5H1250z M1220,300v5h5v-5H1220z M1230,300
		v5h5v-5H1230z M1240,300v5h5v-5H1240z M1250,300v5h5v-5H1250z M1540,300v5h5v-5H1540z M1550,300v5h5v-5H1550z M1560,300v5h5v-5
		H1560z M1570,300v5h5v-5H1570z M1580,300v5h5v-5H1580z M1220,310v5h5v-5H1220z M1230,310v5h5v-5H1230z M1240,310v5h5v-5H1240z
		 M1250,310v5h5v-5H1250z M1540,310v5h5v-5H1540z M1550,310v5h5v-5H1550z M1560,310v5h5v-5H1560z M1570,310v5h5v-5H1570z M1580,310
		v5h5v-5H1580z M1220,320v5h5v-5H1220z M1230,320v5h5v-5H1230z M1240,320v5h5v-5H1240z M1250,320v5h5v-5H1250z M1540,320v5h5v-5
		H1540z M1550,320v5h5v-5H1550z M1560,320v5h5v-5H1560z M1570,320v5h5v-5H1570z M1580,320v5h5v-5H1580z M1360,325v5h5v-5H1360z
		 M1370,325v5h5v-5H1370z M1380,325v5h5v-5H1380z M1390,325v5h5v-5H1390z M1400,325v5h5v-5H1400z M1220,330v5h5v-5H1220z M1230,330
		v5h5v-5H1230z M1240,330v5h5v-5H1240z M1250,330v5h5v-5H1250z M1540,330v5h5v-5H1540z M1550,330v5h5v-5H1550z M1560,330v5h5v-5
		H1560z M1570,330v5h5v-5H1570z M1580,330v5h5v-5H1580z M1360,335v5h5v-5H1360z M1370,335v5h5v-5H1370z M1380,335v5h5v-5H1380z
		 M1390,335v5h5v-5H1390z M1400,335v5h5v-5H1400z M1220,340v5h5v-5H1220z M1230,340v5h5v-5H1230z M1240,340v5h5v-5H1240z M1250,340
		v5h5v-5H1250z M1360,345v5h5v-5H1360z M1370,345v5h5v-5H1370z M1380,345v5h5v-5H1380z M1390,345v5h5v-5H1390z M1400,345v5h5v-5
		H1400z M1360,355v5h5v-5H1360z M1370,355v5h5v-5H1370z M1380,355v5h5v-5H1380z M1390,355v5h5v-5H1390z M1400,355v5h5v-5H1400z
		 M1360,365v5h5v-5H1360z M1370,365v5h5v-5H1370z M1380,365v5h5v-5H1380z M1390,365v5h5v-5H1390z M1400,365v5h5v-5H1400z M1360,375
		v5h5v-5H1360z M1370,375v5h5v-5H1370z M1380,375v5h5v-5H1380z M1390,375v5h5v-5H1390z M1400,375v5h5v-5H1400z M1360,385v5h5v-5
		H1360z M1370,385v5h5v-5H1370z M1380,385v5h5v-5H1380z M1390,385v5h5v-5H1390z M1400,385v5h5v-5H1400z M1455,385v5h5v-5H1455z
		 M1465,385v5h5v-5H1465z M1475,385v5h5v-5H1475z M1515,385v5h5v-5H1515z M1525,385v5h5v-5H1525z M1535,385v5h5v-5H1535z M1545,385
		v5h5v-5H1545z M1340,395v5h5v-5H1340z M1360,395v5h5v-5H1360z M1370,395v5h5v-5H1370z M1380,395v5h5v-5H1380z M1390,395v5h5v-5
		H1390z M1400,395v5h5v-5H1400z M1455,395v5h5v-5H1455z M1465,395v5h5v-5H1465z M1475,395v5h5v-5H1475z M1515,395v5h5v-5H1515z
		 M1525,395v5h5v-5H1525z M1535,395v5h5v-5H1535z M1545,395v5h5v-5H1545z M1130,400v5h5v-5H1130z M1140,400v5h5v-5H1140z M1150,400
		v5h5v-5H1150z M1240,400v5h5v-5H1240z M1250,400v5h5v-5H1250z M1330,405v5h5v-5H1330z M1340,405v5h5v-5H1340z M1360,405v5h5v-5
		H1360z M1370,405v5h5v-5H1370z M1380,405v5h5v-5H1380z M1455,405v5h5v-5H1455z M1465,405v5h5v-5H1465z M1475,405v5h5v-5H1475z
		 M1515,405v5h5v-5H1515z M1525,405v5h5v-5H1525z M1535,405v5h5v-5H1535z M1545,405v5h5v-5H1545z M1130,410v5h5v-5H1130z M1140,410
		v5h5v-5H1140z M1150,410v5h5v-5H1150z M1240,410v5h5v-5H1240z M1250,410v5h5v-5H1250z M1330,415v5h5v-5H1330z M1340,415v5h5v-5
		H1340z M1360,415v5h5v-5H1360z M1370,415v5h5v-5H1370z M1380,415v5h5v-5H1380z M1515,415v5h5v-5H1515z M1525,415v5h5v-5H1525z
		 M1535,415v5h5v-5H1535z M1545,415v5h5v-5H1545z M1130,420v5h5v-5H1130z M1140,420v5h5v-5H1140z M1150,420v5h5v-5H1150z M1240,420
		v5h5v-5H1240z M1250,420v5h5v-5H1250z M1360,425v5h5v-5H1360z M1370,425v5h5v-5H1370z M1380,425v5h5v-5H1380z M1515,425v5h5v-5
		H1515z M1525,425v5h5v-5H1525z M1535,425v5h5v-5H1535z M1545,425v5h5v-5H1545z M1130,430v5h5v-5H1130z M1140,430v5h5v-5H1140z
		 M1150,430v5h5v-5H1150z M1360,435v5h5v-5H1360z M1370,435v5h5v-5H1370z M1380,435v5h5v-5H1380z M1535,435v5h5v-5H1535z M1545,435
		v5h5v-5H1545z M1060,440v5h5v-5H1060z M1070,440v5h5v-5H1070z M1130,440v5h5v-5H1130z M1140,440v5h5v-5H1140z M1150,440v5h5v-5
		H1150z M1285,440v5h5v-5H1285z M1295,440v5h5v-5H1295z M1305,440v5h5v-5H1305z M1315,440v5h5v-5H1315z M1325,440v5h5v-5H1325z
		 M1360,445v5h5v-5H1360z M1370,445v5h5v-5H1370z M1380,445v5h5v-5H1380z M1535,445v5h5v-5H1535z M1545,445v5h5v-5H1545z M1060,450
		v5h5v-5H1060z M1070,450v5h5v-5H1070z M1130,450v5h5v-5H1130z M1140,450v5h5v-5H1140z M1150,450v5h5v-5H1150z M1285,450v5h5v-5
		H1285z M1295,450v5h5v-5H1295z M1305,450v5h5v-5H1305z M1315,450v5h5v-5H1315z M1325,450v5h5v-5H1325z M1360,455v5h5v-5H1360z
		 M1370,455v5h5v-5H1370z M1380,455v5h5v-5H1380z M1425,455v5h5v-5H1425z M1435,455v5h5v-5H1435z M1535,455v5h5v-5H1535z M1545,455
		v5h5v-5H1545z M1570,455v5h5v-5H1570z M1580,455v5h5v-5H1580z M1060,460v5h5v-5H1060z M1070,460v5h5v-5H1070z M1130,460v5h5v-5
		H1130z M1140,460v5h5v-5H1140z M1150,460v5h5v-5H1150z M1285,460v5h5v-5H1285z M1295,460v5h5v-5H1295z M1305,460v5h5v-5H1305z
		 M1315,460v5h5v-5H1315z M1325,460v5h5v-5H1325z M965,465v5h5v-5H965z M975,465v5h5v-5H975z M1435,465v5h5v-5H1435z M1535,465v5h5
		v-5H1535z M1545,465v5h5v-5H1545z M1580,465v5h5v-5H1580z M1130,470v5h5v-5H1130z M1140,470v5h5v-5H1140z M1150,470v5h5v-5H1150z
		 M1285,470v5h5v-5H1285z M1295,470v5h5v-5H1295z M1305,470v5h5v-5H1305z M1315,470v5h5v-5H1315z M1325,470v5h5v-5H1325z M1405,470
		v5h5v-5H1405z M1415,470v5h5v-5H1415z M965,475v5h5v-5H965z M975,475v5h5v-5H975z M1580,475v5h5v-5H1580z M1130,480v5h5v-5H1130z
		 M1140,480v5h5v-5H1140z M1150,480v5h5v-5H1150z M1415,480v5h5v-5H1415z M965,485v5h5v-5H965z M975,485v5h5v-5H975z M1130,490v5h5
		v-5H1130z M1140,490v5h5v-5H1140z M1150,490v5h5v-5H1150z M1130,500v5h5v-5H1130z M1140,500v5h5v-5H1140z M1150,500v5h5v-5H1150z
		 M1130,510v5h5v-5H1130z M1140,510v5h5v-5H1140z M1150,510v5h5v-5H1150z M1065,530v5h5v-5H1065z M1075,530v5h5v-5H1075z M1085,530
		v5h5v-5H1085z M1510,530v5h5v-5H1510z M1520,530v5h5v-5H1520z M1530,530v5h5v-5H1530z M1065,540v5h5v-5H1065z M1075,540v5h5v-5
		H1075z M1085,540v5h5v-5H1085z M1510,540v5h5v-5H1510z M1520,540v5h5v-5H1520z M1530,540v5h5v-5H1530z M1065,550v5h5v-5H1065z
		 M1075,550v5h5v-5H1075z M1085,550v5h5v-5H1085z M1510,550v5h5v-5H1510z M1520,550v5h5v-5H1520z M1530,550v5h5v-5H1530z M1065,560
		v5h5v-5H1065z M1075,560v5h5v-5H1075z M1085,560v5h5v-5H1085z M1510,560v5h5v-5H1510z M1520,560v5h5v-5H1520z M1530,560v5h5v-5
		H1530z"/>
</g>
</svg>
