<?xml version="1.0" standalone="no"?>
<!DOCTYPE svg PUBLIC "-//W3C//DTD SVG 20010904//EN"
 "http://www.w3.org/TR/2001/REC-SVG-20010904/DTD/svg10.dtd">
<svg version="1.0" xmlns="http://www.w3.org/2000/svg"
 width="70.000000pt" height="70.000000pt" viewBox="0 0 70.000000 70.000000"
 preserveAspectRatio="xMidYMid meet">
<metadata>
Created by potrace 1.11, written by Peter Selinger 2001-2013
</metadata>
<g transform="translate(0.000000,70.000000) scale(0.100000,-0.100000)"
fill="#000000" stroke="none">
<path d="M0 485 l0 -210 167 0 168 0 3 48 3 47 -104 0 c-57 0 -106 2 -109 5
-2 3 -3 18 0 35 l4 30 74 0 74 0 0 45 0 45 -75 0 -75 0 0 35 0 35 76 -1 c41
-1 77 1 80 4 4 4 -28 68 -44 87 -2 3 -57 5 -123 5 l-119 1 0 -211z"/>
<path d="M280 693 c0 -2 32 -58 72 -126 71 -121 71 -122 73 -202 2 -44 3 -83
4 -86 1 -8 109 -4 117 4 4 4 6 40 5 80 l-2 74 66 114 c37 63 72 120 77 127 6
6 7 13 2 13 -33 5 -124 5 -132 0 -6 -4 -24 -34 -40 -69 l-30 -62 -38 68 -39
67 -68 0 c-37 0 -67 -1 -67 -2z"/>
<path d="M34 200 c-24 -9 -36 -41 -23 -61 4 -8 23 -18 40 -24 51 -17 51 -40 1
-31 -44 6 -61 -4 -38 -24 20 -15 72 -16 91 0 18 15 20 54 2 68 -6 6 -24 13
-40 17 -15 4 -27 11 -27 15 0 16 19 21 39 11 14 -8 22 -7 30 3 8 10 5 16 -15
24 -29 14 -31 14 -60 2z"/>
<path d="M534 198 c-6 -7 -10 -42 -9 -78 0 -51 3 -65 16 -68 14 -3 16 8 15 72
-1 78 -7 95 -22 74z"/>
<path d="M148 158 c-10 -26 0 -92 15 -103 9 -6 31 -9 51 -7 l35 4 0 54 c-1 30
-4 56 -8 58 -15 9 -26 -10 -26 -44 0 -25 -5 -36 -17 -38 -14 -3 -18 4 -19 25
-2 50 -4 56 -15 60 -6 2 -14 -2 -16 -9z"/>
<path d="M283 161 c-4 -3 -8 -39 -9 -78 0 -57 3 -73 14 -73 8 0 16 9 19 20 3
11 8 18 12 16 17 -10 50 15 56 44 10 43 -15 79 -54 78 -16 -1 -33 -4 -38 -7z
m54 -32 c14 -14 5 -49 -13 -49 -9 0 -14 11 -14 30 0 31 9 37 27 19z"/>
<path d="M406 163 c-11 -11 -7 -153 5 -153 6 0 13 9 16 20 3 12 14 20 27 20
12 0 27 5 34 12 14 14 16 67 3 87 -10 15 -74 25 -85 14z m59 -34 c12 -18 -4
-59 -20 -53 -13 5 -15 33 -6 62 2 6 21 1 26 -9z"/>
<path d="M580 166 c0 -3 9 -29 20 -59 11 -30 19 -63 18 -73 -2 -10 2 -21 7
-23 15 -5 77 147 63 155 -13 8 -38 -23 -38 -48 0 -29 -16 -21 -26 14 -6 18
-17 34 -27 36 -9 2 -17 1 -17 -2z"/>
</g>
</svg>
