<svg xmlns="http://www.w3.org/2000/svg" viewBox="0 0 76.92 44.34">
  <defs>
    <style>
      .ea9f789c-dfbe-46f1-8d12-58b6cacb5d52 {
        fill: #999;
      }
    </style>
  </defs>
  <title>cattle</title>
  <g id="a4ce2311-d345-42d9-9cb0-946c004246cf" data-name="Layer 2">
    <g id="b67ce460-ae02-4f2e-be70-33784281278b" data-name="Layer 1">
      <g>
        <path class="ea9f789c-dfbe-46f1-8d12-58b6cacb5d52" d="M76.27,30l.47,2.77a.59.59,0,0,1-.4.68l-3.33,1h-.2a.61.61,0,0,1-.34-.07l-1.56-1a20.17,20.17,0,0,1-6.37-6.3h-9l-3.8,4.61V44.34H47.52V31l-2.78-4.13H21.42l-11.66,6V44.34H5.49V31.93a2.32,2.32,0,0,1,.14-.74l3.05-9.5-2-7.11a10.32,10.32,0,0,1-.34-2.44V3.32A5.16,5.16,0,0,0,3.59,7.86V19.05a7.64,7.64,0,0,1-1.35,9A7.66,7.66,0,0,1,0,22.64a7.39,7.39,0,0,1,.88-3.59V7.8A7.8,7.8,0,0,1,8.68,0H50.91a6.38,6.38,0,0,1,3.94,1.42L67.25,12l2.78.81c1.15-.2,2.24-.34,3-.54h.14a.65.65,0,0,1,.54,1l-.41.61,3.12.95a.58.58,0,0,1,.14,1.08L74.51,17,76,19.25a1.56,1.56,0,0,1,.27,1.09l-.07.74A29.75,29.75,0,0,0,76.27,30Z"/>
        <polygon class="ea9f789c-dfbe-46f1-8d12-58b6cacb5d52" points="41.76 29.49 37.29 43.32 41.83 43.32 44.81 34.17 44.81 31.73 43.25 29.49 41.76 29.49"/>
        <polygon class="ea9f789c-dfbe-46f1-8d12-58b6cacb5d52" points="22.37 29.49 22.03 29.49 15.19 32.95 19.05 43.32 23.52 43.32 19.86 33.02 22.37 29.49"/>
      </g>
    </g>
  </g>
</svg>
