<svg xmlns="http://www.w3.org/2000/svg" viewBox="0 0 48.71 48.45">
  <defs>
    <style>
      .e5e6ea0e-9007-4787-a2af-0e0153a39e32 {
        fill: #999;
      }
    </style>
  </defs>
  <title>industry</title>
  <g id="bcb1fee6-97b4-4464-90b6-22564fa6a810" data-name="Layer 2">
    <g id="fdc22509-7681-4e16-85a1-ae2ff13c2fde" data-name="Layer 1">
      <g>
        <path class="e5e6ea0e-9007-4787-a2af-0e0153a39e32" d="M2.53,42.51H46.24a.6.6,0,0,0,.63-.64V15.37a.69.69,0,0,0-.31-.57.57.57,0,0,0-.64,0L35.74,20.49H34V15.31a.65.65,0,0,0-.32-.57.56.56,0,0,0-.63,0L22.9,20.43H21.19V15.24a.68.68,0,0,0-.32-.57.6.6,0,0,0-.63,0L12.52,19,12,.63A.69.69,0,0,0,11.39,0H3.73A.63.63,0,0,0,3.1.63l-1.2,41a.55.55,0,0,0,.19.44C2.21,42.44,2.34,42.51,2.53,42.51ZM14.3,29.67V25.49h4.55v4.18Zm20.43-4.18v4.18H30.17V25.49Zm-12.46,0h4.55v4.18H22.27Zm15.81,0h4.55v4.18H38.08Z"/>
        <path class="e5e6ea0e-9007-4787-a2af-0e0153a39e32" d="M48.07,44.21H.63a.6.6,0,0,0-.63.64v3a.59.59,0,0,0,.63.63H48.07a.6.6,0,0,0,.64-.63v-3A.64.64,0,0,0,48.07,44.21Z"/>
      </g>
    </g>
  </g>
</svg>
