<svg xmlns="http://www.w3.org/2000/svg" viewBox="0 0 58.6 54.09">
  <defs>
    <style>
      .bbba6558-eeed-4b3c-8bad-7412b2809ba5 {
        fill: #999;
      }
    </style>
  </defs>
  <title>store</title>
  <g id="ec9103be-5883-464e-bd61-486fd6b92754" data-name="Layer 2">
    <g id="a1329f9f-e7e3-4208-a236-18aa13268fc1" data-name="Layer 1">
      <path class="bbba6558-eeed-4b3c-8bad-7412b2809ba5" d="M58.52,23.17a1.42,1.42,0,0,0-.08-.18l-.57-1.19Q55.59,17,53.29,12.24L52,9.47a.61.61,0,0,0-.54-.32H7.2a.62.62,0,0,0-.54.32c-1.14,2.38-2.29,4.77-3.42,7.16L1,21.37.28,22.81a1.77,1.77,0,0,0-.26.76c0,1.56,0,3.11,0,4.67a.63.63,0,0,0,.62.62H5.26V50.34c0,1,0,2,0,3.06v.06a.63.63,0,0,0,.62.63h28.7v-.62c0-.2,0-.41,0-.62V29.64a.61.61,0,0,1,.62-.6H47.52a.6.6,0,0,1,.61.64v0c0,1,0,2,0,3.07V54.09h4.61a.63.63,0,0,0,.61-.62V31.33c0-.83,0-1.66,0-2.47h2.27c.74,0,1.49,0,2.23,0H58a.63.63,0,0,0,.44-.18.57.57,0,0,0,.17-.44V23.87A1.38,1.38,0,0,0,58.52,23.17ZM29.07,43.8a.56.56,0,0,1-.18.43.59.59,0,0,1-.44.16H12.08a.6.6,0,0,1-.6-.6V29.64a.6.6,0,0,1,.6-.6H28.45a.61.61,0,0,1,.62.6V43.8Z"/>
      <path class="bbba6558-eeed-4b3c-8bad-7412b2809ba5" d="M52.07,2.33V6.66a.58.58,0,0,1-.19.44.58.58,0,0,1-.44.18h-.07c-.58,0-1.16,0-1.74,0H7.2a.65.65,0,0,1-.64-.62V2.37A2.37,2.37,0,0,1,7,.87,2.05,2.05,0,0,1,8.6,0H48.72c1,0,2.15-.14,2.87.72A2.43,2.43,0,0,1,52.07,2.33Z"/>
    </g>
  </g>
</svg>
