<svg xmlns="http://www.w3.org/2000/svg" viewBox="0 0 57.12 51.41">
  <defs>
    <style>
      .f170fc9c-b14d-48fb-b5b5-d278f6ef784d {
        fill: #fff;
      }
    </style>
  </defs>
  <title>warehouse</title>
  <g id="b578409b-525e-460a-8ff3-095bd9b58c83" data-name="Layer 2">
    <g id="bbd7bb3b-9378-45e7-bbea-2148420ab926" data-name="Layer 1">
      <g>
        <path class="f170fc9c-b14d-48fb-b5b5-d278f6ef784d" d="M56.35,11.59,29.21.17a1.33,1.33,0,0,0-1.31,0L.77,11.59A1.43,1.43,0,0,0,0,12.85V50a1.43,1.43,0,0,0,1.43,1.43H7.14A1.43,1.43,0,0,0,8.57,50V20h40V50A1.43,1.43,0,0,0,50,51.41h5.71A1.43,1.43,0,0,0,57.12,50V12.85A1.45,1.45,0,0,0,56.35,11.59Z"/>
        <rect class="f170fc9c-b14d-48fb-b5b5-d278f6ef784d" x="15.71" y="39.98" width="11.42" height="11.42" rx="1.43"/>
        <rect class="f170fc9c-b14d-48fb-b5b5-d278f6ef784d" x="29.99" y="39.98" width="11.42" height="11.42" rx="1.43"/>
        <rect class="f170fc9c-b14d-48fb-b5b5-d278f6ef784d" x="22.85" y="25.7" width="11.42" height="11.42" rx="1.43"/>
      </g>
    </g>
  </g>
</svg>
